# Blender 4.4.3
# www.blender.org
mtllib Dividers.mtl
o Dividers
v 45.227531 7.550981 -3.751505
v 45.227531 -0.063432 -3.751504
v 45.227531 7.550981 -3.313920
v 45.227531 -0.063432 -3.313918
v 36.035828 7.550981 -3.751505
v 36.035828 -0.063432 -3.751504
v 36.035828 7.550981 -3.313920
v 36.035828 -0.063432 -3.313918
v -30.686792 7.550981 -2.511410
v -30.686792 -0.063432 -2.511408
v -30.686792 7.550981 -2.073822
v -30.686792 -0.063432 -2.073821
v -39.878498 7.550981 -2.511410
v -39.878498 -0.063432 -2.511408
v -39.878498 7.550981 -2.073822
v -39.878498 -0.063432 -2.073821
v -15.533103 7.550982 7.097305
v -15.533104 -0.063431 7.097306
v -15.970638 7.550982 7.090598
v -15.970639 -0.063431 7.090598
v -15.536958 7.550981 -6.778529
v -15.536959 -0.063433 -6.778528
v -15.974493 7.550981 -6.785236
v -15.974494 -0.063433 -6.785236
v -0.999355 7.550982 7.097692
v -0.999356 -0.063431 7.097692
v -1.436909 7.550982 7.092343
v -1.436910 -0.063431 7.092344
v -1.046358 7.550981 -6.778062
v -1.046359 -0.063433 -6.778062
v -1.483912 7.550981 -6.783411
v -1.483912 -0.063433 -6.783410
v 27.477360 7.550981 -3.751505
v 27.477360 -0.063432 -3.751504
v 27.477360 7.550981 -3.313920
v 27.477360 -0.063432 -3.313918
v 18.285654 7.550981 -3.751505
v 18.285654 -0.063432 -3.751504
v 18.285654 7.550981 -3.313920
v 18.285654 -0.063432 -3.313918
v 30.936266 7.550981 -6.594899
v 30.936266 -0.063432 -6.594898
v 30.498688 7.550981 -6.592157
v 30.498688 -0.063432 -6.592157
v 30.878704 7.550980 -15.786426
v 30.878702 -0.063433 -15.786425
v 30.441126 7.550980 -15.783685
v 30.441126 -0.063433 -15.783684
vn -0.0000 1.0000 -0.0000
vn -0.0000 -0.0000 1.0000
vn -1.0000 -0.0000 -0.0000
vn -0.0000 -1.0000 -0.0000
vn 1.0000 -0.0000 -0.0000
vn -0.0000 -0.0000 -1.0000
vn -1.0000 -0.0000 0.0003
vn 0.0153 -0.0000 -0.9999
vn -0.0153 -0.0000 0.9999
vn 1.0000 -0.0000 -0.0003
vn -1.0000 -0.0000 0.0034
vn 0.0122 -0.0000 -0.9999
vn -0.0122 -0.0000 0.9999
vn 1.0000 -0.0000 -0.0034
vn -1.0000 -0.0000 0.0063
vn -0.0063 -0.0000 -1.0000
vn 0.0063 -0.0000 1.0000
vn 1.0000 -0.0000 -0.0063
vt 0.051004 0.404381
vt 0.025191 0.430194
vt 0.025191 0.404381
vt -0.317150 2.144957
vt 1.879095 -0.020279
vt 1.916261 2.156871
vt 0.028148 0.378880
vt 0.048536 0.399269
vt 0.028148 0.399269
vt 0.051360 0.366673
vt 0.024917 0.393116
vt 0.024917 0.366673
vt 0.031593 0.414111
vt 0.048866 0.396838
vt 0.048866 0.414111
vt -0.303502 2.166440
vt 1.893745 -0.030806
vt 1.893745 2.166440
vt 0.048536 0.378880
vt -0.503034 2.324255
vt 2.058793 -0.201401
vt 2.102145 2.338152
vt 0.051360 0.393116
vt -0.487114 2.349314
vt 2.075881 -0.213680
vt 2.075881 2.349314
vt 0.051004 0.430194
vt -0.301087 -0.019689
vt 0.031593 0.396838
vt -0.303502 -0.030806
vt -0.484297 -0.200713
vt -0.487114 -0.213680
s 1
usemtl Material.013
f 5/1/1 3/2/1 1/3/1
f 3/4/2 8/5/2 4/6/2
f 8/7/3 5/8/3 6/9/3
f 2/10/4 8/11/4 6/12/4
f 1/13/5 4/14/5 2/15/5
f 5/16/6 2/17/6 6/18/6
f 13/1/1 11/2/1 9/3/1
f 11/4/2 16/5/2 12/6/2
f 15/19/3 14/9/3 16/7/3
f 10/10/4 16/11/4 14/12/4
f 9/13/5 12/14/5 10/15/5
f 13/16/6 10/17/6 14/18/6
f 21/1/1 19/2/1 17/3/1
f 19/20/7 24/21/7 20/22/7
f 23/19/8 22/9/8 24/7/8
f 22/12/4 20/23/4 24/11/4
f 17/13/9 20/14/9 18/15/9
f 21/24/10 18/25/10 22/26/10
f 29/1/1 27/2/1 25/3/1
f 27/20/11 32/21/11 28/22/11
f 31/19/12 30/9/12 32/7/12
f 30/12/4 28/23/4 32/11/4
f 25/13/13 28/14/13 26/15/13
f 29/24/14 26/25/14 30/26/14
f 37/1/1 35/2/1 33/3/1
f 35/4/2 40/5/2 36/6/2
f 40/7/3 37/8/3 38/9/3
f 34/10/4 40/11/4 38/12/4
f 33/13/5 36/14/5 34/15/5
f 37/16/6 34/17/6 38/18/6
f 41/3/1 47/27/1 43/2/1
f 43/4/15 48/5/15 44/6/15
f 47/19/16 46/9/16 48/7/16
f 42/10/4 48/11/4 46/12/4
f 41/13/17 44/14/17 42/15/17
f 45/16/18 42/17/18 46/18/18
f 5/1/1 7/27/1 3/2/1
f 3/4/2 7/28/2 8/5/2
f 8/7/3 7/19/3 5/8/3
f 2/10/4 4/23/4 8/11/4
f 1/13/5 3/29/5 4/14/5
f 5/16/6 1/30/6 2/17/6
f 13/1/1 15/27/1 11/2/1
f 11/4/2 15/28/2 16/5/2
f 15/19/3 13/8/3 14/9/3
f 10/10/4 12/23/4 16/11/4
f 9/13/5 11/29/5 12/14/5
f 13/16/6 9/30/6 10/17/6
f 21/1/1 23/27/1 19/2/1
f 19/20/7 23/31/7 24/21/7
f 23/19/8 21/8/8 22/9/8
f 22/12/4 18/10/4 20/23/4
f 17/13/9 19/29/9 20/14/9
f 21/24/10 17/32/10 18/25/10
f 29/1/1 31/27/1 27/2/1
f 27/20/11 31/31/11 32/21/11
f 31/19/12 29/8/12 30/9/12
f 30/12/4 26/10/4 28/23/4
f 25/13/13 27/29/13 28/14/13
f 29/24/14 25/32/14 26/25/14
f 37/1/1 39/27/1 35/2/1
f 35/4/2 39/28/2 40/5/2
f 40/7/3 39/19/3 37/8/3
f 34/10/4 36/23/4 40/11/4
f 33/13/5 35/29/5 36/14/5
f 37/16/6 33/30/6 34/17/6
f 41/3/1 45/1/1 47/27/1
f 43/4/15 47/28/15 48/5/15
f 47/19/16 45/8/16 46/9/16
f 42/10/4 44/23/4 48/11/4
f 41/13/17 43/29/17 44/14/17
f 45/16/18 41/30/18 42/17/18
