# Blender 4.4.3
# www.blender.org
mtllib RoofFraming.mtl
o RoofFraming
v -67.968353 42.082264 -1.235289
v -67.968353 47.057068 -13.634416
v -67.968353 42.082264 -2.355757
v -67.968353 47.057068 -14.754884
v -66.847885 42.082264 -1.235289
v -66.847885 47.057068 -13.634416
v -66.847885 42.082264 -2.355757
v -66.847885 47.057068 -14.754884
v -67.813858 49.637039 -0.801031
v -67.813858 50.066422 -0.801031
v -67.813858 49.637039 -2.801031
v -67.813858 50.066422 -2.801031
v 53.970898 49.637039 -0.801031
v 53.970898 50.066422 -0.801031
v 53.970898 49.637039 -2.801031
v 53.970898 50.066422 -2.801031
v -67.813858 42.044498 20.142218
v -67.813858 42.473881 20.142218
v -67.813858 42.044498 18.142218
v -67.813858 42.473881 18.142218
v 53.970898 42.044498 20.142218
v 53.970898 42.473881 20.142218
v 53.970898 42.044498 18.142218
v 53.970898 42.473881 18.142218
v -67.813858 47.014267 11.745596
v -67.813858 47.443649 11.745596
v -67.813858 47.014267 9.745596
v -67.813858 47.443649 9.745596
v 53.970898 47.014267 11.745596
v 53.970898 47.443649 11.745596
v 53.970898 47.014267 9.745596
v 53.970898 47.443649 9.745596
v -67.813858 42.079128 -0.801030
v -67.813858 42.508511 -0.801030
v -67.813858 42.079128 -2.801030
v -67.813858 42.508511 -2.801030
v 53.970898 42.079128 -0.801030
v 53.970898 42.508511 -0.801030
v 53.970898 42.079128 -2.801030
v 53.970898 42.508511 -2.801030
v -67.813858 42.044498 -21.498056
v -67.813858 42.473881 -21.498056
v -67.813858 42.044498 -23.498056
v -67.813858 42.473881 -23.498056
v 53.970898 42.044498 -21.498056
v 53.970898 42.473881 -21.498056
v 53.970898 42.044498 -23.498056
v 53.970898 42.473881 -23.498056
v -67.813858 47.014267 -13.140066
v -67.813858 47.443649 -13.140066
v -67.813858 47.014267 -15.140066
v -67.813858 47.443649 -15.140066
v 53.970898 47.014267 -13.140066
v 53.970898 47.443649 -13.140066
v 53.970898 47.014267 -15.140066
v 53.970898 47.443649 -15.140066
v 54.350372 42.079128 -23.650198
v 54.350372 42.508511 -23.650198
v 52.350372 42.079128 -23.650198
v 52.350372 42.508511 -23.650198
v 54.350372 42.079128 20.048136
v 54.350372 42.508511 20.048136
v 52.350372 42.079128 20.048136
v 52.350372 42.508511 20.048136
v -66.108505 42.079128 -23.650198
v -66.108505 42.508511 -23.650198
v -68.108505 42.079128 -23.650198
v -68.108505 42.508511 -23.650198
v -66.108505 42.079128 20.048136
v -66.108505 42.508511 20.048136
v -68.108505 42.079128 20.048136
v -68.108505 42.508511 20.048136
v -6.646205 42.434399 18.011782
v -6.646205 42.434399 20.011784
v -6.646205 42.383083 -21.432003
v -6.646205 42.383083 -23.432003
v -4.646205 42.434399 18.011782
v -4.646205 42.434399 20.011784
v -4.646205 42.383083 -21.432003
v -4.646205 42.383083 -23.432003
v -6.646205 46.444572 -14.114123
v -6.646205 48.794800 -1.710112
v -6.646205 46.444572 10.531645
v -6.646205 48.444572 10.531645
v -6.646205 50.794800 -1.710112
v -6.646205 48.444572 -14.114123
v -4.646205 46.444572 10.531645
v -4.646205 48.794800 -1.710112
v -4.646205 46.444572 -14.114123
v -4.646205 48.444572 -14.114123
v -4.646205 50.794800 -1.710112
v -4.646205 48.444572 10.531645
v -68.216911 42.434399 18.011782
v -68.216911 42.434399 20.011784
v -68.216911 42.383083 -21.432003
v -68.216911 42.383083 -23.432003
v -66.216911 42.434399 18.011782
v -66.216911 42.434399 20.011784
v -66.216911 42.383083 -21.432003
v -66.216911 42.383083 -23.432003
v -68.216911 46.444572 -14.114123
v -68.216911 48.794800 -1.710112
v -68.216911 46.444572 10.531645
v -68.216911 48.444572 10.531645
v -68.216911 50.794800 -1.710112
v -68.216911 48.444572 -14.114123
v -66.216911 46.444572 10.531645
v -66.216911 48.794800 -1.710112
v -66.216911 46.444572 -14.114123
v -66.216911 48.444572 -14.114123
v -66.216911 50.794800 -1.710112
v -66.216911 48.444572 10.531645
v -46.343151 42.434399 18.011782
v -46.343151 42.434399 20.011784
v -46.343151 42.383083 -21.432003
v -46.343151 42.383083 -23.432003
v -44.343151 42.434399 18.011782
v -44.343151 42.434399 20.011784
v -44.343151 42.383083 -21.432003
v -44.343151 42.383083 -23.432003
v -46.343151 46.444572 -14.114123
v -46.343151 48.794800 -1.710112
v -46.343151 46.444572 10.531645
v -46.343151 48.444572 10.531645
v -46.343151 50.794800 -1.710112
v -46.343151 48.444572 -14.114123
v -44.343151 46.444572 10.531645
v -44.343151 48.794800 -1.710112
v -44.343151 46.444572 -14.114123
v -44.343151 48.444572 -14.114123
v -44.343151 50.794800 -1.710112
v -44.343151 48.444572 10.531645
v -26.967226 42.434399 18.011782
v -26.967226 42.434399 20.011784
v -26.967226 42.383083 -21.432003
v -26.967226 42.383083 -23.432003
v -24.967226 42.434399 18.011782
v -24.967226 42.434399 20.011784
v -24.967226 42.383083 -21.432003
v -24.967226 42.383083 -23.432003
v -26.967226 46.444572 -14.114123
v -26.967226 48.794800 -1.710112
v -26.967226 46.444572 10.531645
v -26.967226 48.444572 10.531645
v -26.967226 50.794800 -1.710112
v -26.967226 48.444572 -14.114123
v -24.967226 46.444572 10.531645
v -24.967226 48.794800 -1.710112
v -24.967226 46.444572 -14.114123
v -24.967226 48.444572 -14.114123
v -24.967226 50.794800 -1.710112
v -24.967226 48.444572 10.531645
v 52.103210 42.434399 18.011782
v 52.103210 42.434399 20.011784
v 52.103210 42.383083 -21.432003
v 52.103210 42.383083 -23.432003
v 54.103210 42.434399 18.011782
v 54.103210 42.434399 20.011784
v 54.103210 42.383083 -21.432003
v 54.103210 42.383083 -23.432003
v 52.103210 46.444572 -14.114123
v 52.103210 48.794800 -1.710112
v 52.103210 46.444572 10.531645
v 52.103210 48.444572 10.531645
v 52.103210 50.794800 -1.710112
v 52.103210 48.444572 -14.114123
v 54.103210 46.444572 10.531645
v 54.103210 48.794800 -1.710112
v 54.103210 46.444572 -14.114123
v 54.103210 48.444572 -14.114123
v 54.103210 50.794800 -1.710112
v 54.103210 48.444572 10.531645
v 13.942418 42.434399 18.011782
v 13.942418 42.434399 20.011784
v 13.942418 42.383083 -21.432003
v 13.942418 42.383083 -23.432003
v 15.942418 42.434399 18.011782
v 15.942418 42.434399 20.011784
v 15.942418 42.383083 -21.432003
v 15.942418 42.383083 -23.432003
v 13.942418 46.444572 -14.114123
v 13.942418 48.794800 -1.710112
v 13.942418 46.444572 10.531645
v 13.942418 48.444572 10.531645
v 13.942418 50.794800 -1.710112
v 13.942418 48.444572 -14.114123
v 15.942418 46.444572 10.531645
v 15.942418 48.794800 -1.710112
v 15.942418 46.444572 -14.114123
v 15.942418 48.444572 -14.114123
v 15.942418 50.794800 -1.710112
v 15.942418 48.444572 10.531645
v 52.499168 42.119659 -1.234532
v 52.499168 48.963810 -1.234533
v 52.499168 42.119659 -2.355000
v 52.499168 48.963810 -2.355001
v 53.619637 42.119659 -1.234532
v 53.619637 48.963810 -1.234533
v 53.619637 42.119659 -2.355000
v 53.619637 48.963810 -2.355001
v 34.512817 42.434399 18.011782
v 34.512817 42.434399 20.011784
v 34.512817 42.383083 -21.432003
v 34.512817 42.383083 -23.432003
v 36.512817 42.434399 18.011782
v 36.512817 42.434399 20.011784
v 36.512817 42.383083 -21.432003
v 36.512817 42.383083 -23.432003
v 34.512817 46.444572 -14.114123
v 34.512817 48.794800 -1.710112
v 34.512817 46.444572 10.531645
v 34.512817 48.444572 10.531645
v 34.512817 50.794800 -1.710112
v 34.512817 48.444572 -14.114123
v 36.512817 46.444572 10.531645
v 36.512817 48.794800 -1.710112
v 36.512817 46.444572 -14.114123
v 36.512817 48.444572 -14.114123
v 36.512817 50.794800 -1.710112
v 36.512817 48.444572 10.531645
v 52.503475 42.082264 -1.235289
v 52.503475 47.057068 -13.634416
v 52.503475 42.082264 -2.355757
v 52.503475 47.057068 -14.754884
v 53.623943 42.082264 -1.235289
v 53.623943 47.057068 -13.634416
v 53.623943 42.082264 -2.355757
v 53.623943 47.057068 -14.754884
v 53.623943 42.082264 -2.355757
v 53.623947 47.057068 10.043368
v 53.623943 42.082264 -1.235289
v 53.623947 47.057068 11.163836
v 52.503475 42.082264 -2.355757
v 52.503479 47.057068 10.043368
v 52.503475 42.082264 -1.235289
v 52.503479 47.057068 11.163836
v -67.972664 42.119659 -1.234532
v -67.972664 48.963810 -1.234533
v -67.972664 42.119659 -2.355000
v -67.972664 48.963810 -2.355001
v -66.852196 42.119659 -1.234532
v -66.852196 48.963810 -1.234533
v -66.852196 42.119659 -2.355000
v -66.852196 48.963810 -2.355001
v -66.847885 42.082264 -2.355757
v -66.847885 47.057068 10.043368
v -66.847885 42.082264 -1.235289
v -66.847878 47.057068 11.163836
v -67.968353 42.082264 -2.355757
v -67.968346 47.057068 10.043368
v -67.968353 42.082264 -1.235289
v -67.968346 47.057068 11.163836
vn -1.0000 -0.0000 -0.0000
vn -0.0000 -0.9281 -0.3724
vn 1.0000 -0.0000 -0.0000
vn -0.0000 0.9281 0.3724
vn -0.0000 -1.0000 -0.0000
vn -0.0000 1.0000 -0.0000
vn -0.0000 -0.0000 -1.0000
vn -0.0000 -0.0000 1.0000
vn -0.0000 -0.8813 -0.4725
vn -0.0000 0.8446 0.5354
vn -0.0000 0.8382 -0.5453
vn -0.0000 0.9825 -0.1862
vn -0.0000 0.9821 0.1885
vn -0.0000 -0.8744 0.4853
vn -0.0000 -0.9825 0.1862
vn -0.0000 -0.9821 -0.1885
vn -0.0000 -0.9281 0.3724
vn -0.0000 0.9281 -0.3724
vt 0.625000 0.000000
vt 0.375000 0.250000
vt 0.375000 0.000000
vt 0.625000 0.250000
vt 0.375000 0.500000
vt 0.625000 0.750000
vt 0.375000 0.750000
vt 0.375000 1.000000
vt 0.125000 0.750000
vt 0.125000 0.500000
vt 0.875000 0.500000
vt 0.625000 0.500000
vt 0.625000 1.000000
vt 0.875000 0.750000
vt 0.375000 0.187500
vt 0.375000 0.687500
vt 0.125000 0.687500
vt 0.875000 0.687500
vt 0.625000 0.687500
vt 0.625000 0.562500
vt 0.875000 0.562500
vt 0.625000 0.625000
vt 0.875000 0.625000
vt 0.125000 0.562500
vt 0.375000 0.562500
vt 0.125000 0.625000
vt 0.375000 0.625000
vt 0.375000 0.062500
vt 0.625000 0.062500
vt 0.375000 0.125000
vt 0.625000 0.187500
vt 0.625000 0.125000
s 1
usemtl ROOFBEAM
f 2/1/1 3/2/1 1/3/1
f 4/4/2 7/5/2 3/2/2
f 7/5/3 6/6/3 5/7/3
f 6/6/4 1/8/4 5/7/4
f 7/5/5 1/9/5 3/10/5
f 4/11/6 6/6/6 8/12/6
f 2/1/1 4/4/1 3/2/1
f 4/4/2 8/12/2 7/5/2
f 7/5/3 8/12/3 6/6/3
f 6/6/4 2/13/4 1/8/4
f 7/5/5 5/7/5 1/9/5
f 4/11/6 2/14/6 6/6/6
f 18/1/1 19/2/1 17/3/1
f 20/4/7 23/5/7 19/2/7
f 24/12/3 21/7/3 23/5/3
f 22/6/8 17/8/8 21/7/8
f 23/5/5 17/9/5 19/10/5
f 20/11/6 22/6/6 24/12/6
f 18/1/1 20/4/1 19/2/1
f 20/4/7 24/12/7 23/5/7
f 24/12/3 22/6/3 21/7/3
f 22/6/8 18/13/8 17/8/8
f 23/5/5 21/7/5 17/9/5
f 20/11/6 18/14/6 22/6/6
f 26/1/1 27/2/1 25/3/1
f 28/4/7 31/5/7 27/2/7
f 32/12/3 29/7/3 31/5/3
f 30/6/8 25/8/8 29/7/8
f 31/5/5 25/9/5 27/10/5
f 28/11/6 30/6/6 32/12/6
f 26/1/1 28/4/1 27/2/1
f 28/4/7 32/12/7 31/5/7
f 32/12/3 30/6/3 29/7/3
f 30/6/8 26/13/8 25/8/8
f 31/5/5 29/7/5 25/9/5
f 28/11/6 26/14/6 30/6/6
f 34/1/1 35/2/1 33/3/1
f 36/4/7 39/5/7 35/2/7
f 40/12/3 37/7/3 39/5/3
f 38/6/8 33/8/8 37/7/8
f 39/5/5 33/9/5 35/10/5
f 36/11/6 38/6/6 40/12/6
f 34/1/1 36/4/1 35/2/1
f 36/4/7 40/12/7 39/5/7
f 40/12/3 38/6/3 37/7/3
f 38/6/8 34/13/8 33/8/8
f 39/5/5 37/7/5 33/9/5
f 36/11/6 34/14/6 38/6/6
f 42/1/1 43/2/1 41/3/1
f 44/4/7 47/5/7 43/2/7
f 48/12/3 45/7/3 47/5/3
f 46/6/8 41/8/8 45/7/8
f 47/5/5 41/9/5 43/10/5
f 44/11/6 46/6/6 48/12/6
f 42/1/1 44/4/1 43/2/1
f 44/4/7 48/12/7 47/5/7
f 48/12/3 46/6/3 45/7/3
f 46/6/8 42/13/8 41/8/8
f 47/5/5 45/7/5 41/9/5
f 44/11/6 42/14/6 46/6/6
f 50/1/1 51/2/1 49/3/1
f 52/4/7 55/5/7 51/2/7
f 56/12/3 53/7/3 55/5/3
f 54/6/8 49/8/8 53/7/8
f 55/5/5 49/9/5 51/10/5
f 52/11/6 54/6/6 56/12/6
f 50/1/1 52/4/1 51/2/1
f 52/4/7 56/12/7 55/5/7
f 56/12/3 54/6/3 53/7/3
f 54/6/8 50/13/8 49/8/8
f 55/5/5 53/7/5 49/9/5
f 52/11/6 50/14/6 54/6/6
f 58/1/7 57/3/7 59/2/7
f 60/4/1 59/2/1 63/5/1
f 64/12/8 63/5/8 61/7/8
f 62/6/3 61/7/3 57/8/3
f 63/5/5 59/10/5 57/9/5
f 60/11/6 64/12/6 62/6/6
f 58/1/7 59/2/7 60/4/7
f 60/4/1 63/5/1 64/12/1
f 64/12/8 61/7/8 62/6/8
f 62/6/3 57/8/3 58/13/3
f 63/5/5 57/9/5 61/7/5
f 60/11/6 62/6/6 58/14/6
f 81/15/1 76/4/1 75/2/1
f 76/4/5 79/5/5 75/2/5
f 87/16/3 78/6/3 77/7/3
f 78/6/5 73/8/5 77/7/5
f 87/16/9 73/9/9 83/17/9
f 84/18/10 78/6/10 92/19/10
f 76/11/11 90/20/11 80/12/11
f 86/21/12 91/22/12 90/20/12
f 85/23/13 92/19/13 91/22/13
f 79/5/14 81/24/14 75/10/14
f 89/25/15 82/26/15 81/24/15
f 88/27/16 83/17/16 82/26/16
f 80/12/3 89/25/3 79/5/3
f 90/20/3 88/27/3 89/25/3
f 88/27/3 92/19/3 87/16/3
f 74/1/1 83/28/1 73/3/1
f 84/29/1 82/30/1 83/28/1
f 82/30/1 86/31/1 81/15/1
f 81/15/1 86/31/1 76/4/1
f 76/4/5 80/12/5 79/5/5
f 87/16/3 92/19/3 78/6/3
f 78/6/5 74/13/5 73/8/5
f 87/16/9 77/7/9 73/9/9
f 84/18/10 74/14/10 78/6/10
f 76/11/11 86/21/11 90/20/11
f 86/21/12 85/23/12 91/22/12
f 85/23/13 84/18/13 92/19/13
f 79/5/14 89/25/14 81/24/14
f 89/25/15 88/27/15 82/26/15
f 88/27/16 87/16/16 83/17/16
f 80/12/3 90/20/3 89/25/3
f 90/20/3 91/22/3 88/27/3
f 88/27/3 91/22/3 92/19/3
f 74/1/1 84/29/1 83/28/1
f 84/29/1 85/32/1 82/30/1
f 82/30/1 85/32/1 86/31/1
f 101/15/1 96/4/1 95/2/1
f 96/4/5 99/5/5 95/2/5
f 107/16/3 98/6/3 97/7/3
f 98/6/5 93/8/5 97/7/5
f 107/16/9 93/9/9 103/17/9
f 104/18/10 98/6/10 112/19/10
f 96/11/11 110/20/11 100/12/11
f 106/21/12 111/22/12 110/20/12
f 105/23/13 112/19/13 111/22/13
f 99/5/14 101/24/14 95/10/14
f 109/25/15 102/26/15 101/24/15
f 108/27/16 103/17/16 102/26/16
f 100/12/3 109/25/3 99/5/3
f 110/20/3 108/27/3 109/25/3
f 108/27/3 112/19/3 107/16/3
f 94/1/1 103/28/1 93/3/1
f 104/29/1 102/30/1 103/28/1
f 102/30/1 106/31/1 101/15/1
f 101/15/1 106/31/1 96/4/1
f 96/4/5 100/12/5 99/5/5
f 107/16/3 112/19/3 98/6/3
f 98/6/5 94/13/5 93/8/5
f 107/16/9 97/7/9 93/9/9
f 104/18/10 94/14/10 98/6/10
f 96/11/11 106/21/11 110/20/11
f 106/21/12 105/23/12 111/22/12
f 105/23/13 104/18/13 112/19/13
f 99/5/14 109/25/14 101/24/14
f 109/25/15 108/27/15 102/26/15
f 108/27/16 107/16/16 103/17/16
f 100/12/3 110/20/3 109/25/3
f 110/20/3 111/22/3 108/27/3
f 108/27/3 111/22/3 112/19/3
f 94/1/1 104/29/1 103/28/1
f 104/29/1 105/32/1 102/30/1
f 102/30/1 105/32/1 106/31/1
f 121/15/1 116/4/1 115/2/1
f 116/4/5 119/5/5 115/2/5
f 127/16/3 118/6/3 117/7/3
f 118/6/5 113/8/5 117/7/5
f 127/16/9 113/9/9 123/17/9
f 124/18/10 118/6/10 132/19/10
f 116/11/11 130/20/11 120/12/11
f 126/21/12 131/22/12 130/20/12
f 125/23/13 132/19/13 131/22/13
f 119/5/14 121/24/14 115/10/14
f 129/25/15 122/26/15 121/24/15
f 128/27/16 123/17/16 122/26/16
f 120/12/3 129/25/3 119/5/3
f 130/20/3 128/27/3 129/25/3
f 128/27/3 132/19/3 127/16/3
f 114/1/1 123/28/1 113/3/1
f 124/29/1 122/30/1 123/28/1
f 122/30/1 126/31/1 121/15/1
f 121/15/1 126/31/1 116/4/1
f 116/4/5 120/12/5 119/5/5
f 127/16/3 132/19/3 118/6/3
f 118/6/5 114/13/5 113/8/5
f 127/16/9 117/7/9 113/9/9
f 124/18/10 114/14/10 118/6/10
f 116/11/11 126/21/11 130/20/11
f 126/21/12 125/23/12 131/22/12
f 125/23/13 124/18/13 132/19/13
f 119/5/14 129/25/14 121/24/14
f 129/25/15 128/27/15 122/26/15
f 128/27/16 127/16/16 123/17/16
f 120/12/3 130/20/3 129/25/3
f 130/20/3 131/22/3 128/27/3
f 128/27/3 131/22/3 132/19/3
f 114/1/1 124/29/1 123/28/1
f 124/29/1 125/32/1 122/30/1
f 122/30/1 125/32/1 126/31/1
f 141/15/1 136/4/1 135/2/1
f 136/4/5 139/5/5 135/2/5
f 147/16/3 138/6/3 137/7/3
f 138/6/5 133/8/5 137/7/5
f 147/16/9 133/9/9 143/17/9
f 144/18/10 138/6/10 152/19/10
f 136/11/11 150/20/11 140/12/11
f 146/21/12 151/22/12 150/20/12
f 145/23/13 152/19/13 151/22/13
f 139/5/14 141/24/14 135/10/14
f 149/25/15 142/26/15 141/24/15
f 148/27/16 143/17/16 142/26/16
f 140/12/3 149/25/3 139/5/3
f 150/20/3 148/27/3 149/25/3
f 148/27/3 152/19/3 147/16/3
f 134/1/1 143/28/1 133/3/1
f 144/29/1 142/30/1 143/28/1
f 142/30/1 146/31/1 141/15/1
f 141/15/1 146/31/1 136/4/1
f 136/4/5 140/12/5 139/5/5
f 147/16/3 152/19/3 138/6/3
f 138/6/5 134/13/5 133/8/5
f 147/16/9 137/7/9 133/9/9
f 144/18/10 134/14/10 138/6/10
f 136/11/11 146/21/11 150/20/11
f 146/21/12 145/23/12 151/22/12
f 145/23/13 144/18/13 152/19/13
f 139/5/14 149/25/14 141/24/14
f 149/25/15 148/27/15 142/26/15
f 148/27/16 147/16/16 143/17/16
f 140/12/3 150/20/3 149/25/3
f 150/20/3 151/22/3 148/27/3
f 148/27/3 151/22/3 152/19/3
f 134/1/1 144/29/1 143/28/1
f 144/29/1 145/32/1 142/30/1
f 142/30/1 145/32/1 146/31/1
f 161/15/1 156/4/1 155/2/1
f 156/4/5 159/5/5 155/2/5
f 167/16/3 158/6/3 157/7/3
f 158/6/5 153/8/5 157/7/5
f 167/16/9 153/9/9 163/17/9
f 164/18/10 158/6/10 172/19/10
f 156/11/11 170/20/11 160/12/11
f 166/21/12 171/22/12 170/20/12
f 165/23/13 172/19/13 171/22/13
f 159/5/14 161/24/14 155/10/14
f 169/25/15 162/26/15 161/24/15
f 168/27/16 163/17/16 162/26/16
f 160/12/3 169/25/3 159/5/3
f 170/20/3 168/27/3 169/25/3
f 168/27/3 172/19/3 167/16/3
f 154/1/1 163/28/1 153/3/1
f 164/29/1 162/30/1 163/28/1
f 162/30/1 166/31/1 161/15/1
f 161/15/1 166/31/1 156/4/1
f 156/4/5 160/12/5 159/5/5
f 167/16/3 172/19/3 158/6/3
f 158/6/5 154/13/5 153/8/5
f 167/16/9 157/7/9 153/9/9
f 164/18/10 154/14/10 158/6/10
f 156/11/11 166/21/11 170/20/11
f 166/21/12 165/23/12 171/22/12
f 165/23/13 164/18/13 172/19/13
f 159/5/14 169/25/14 161/24/14
f 169/25/15 168/27/15 162/26/15
f 168/27/16 167/16/16 163/17/16
f 160/12/3 170/20/3 169/25/3
f 170/20/3 171/22/3 168/27/3
f 168/27/3 171/22/3 172/19/3
f 154/1/1 164/29/1 163/28/1
f 164/29/1 165/32/1 162/30/1
f 162/30/1 165/32/1 166/31/1
f 181/15/1 176/4/1 175/2/1
f 176/4/5 179/5/5 175/2/5
f 187/16/3 178/6/3 177/7/3
f 178/6/5 173/8/5 177/7/5
f 187/16/9 173/9/9 183/17/9
f 184/18/10 178/6/10 192/19/10
f 176/11/11 190/20/11 180/12/11
f 186/21/12 191/22/12 190/20/12
f 185/23/13 192/19/13 191/22/13
f 179/5/14 181/24/14 175/10/14
f 189/25/15 182/26/15 181/24/15
f 188/27/16 183/17/16 182/26/16
f 180/12/3 189/25/3 179/5/3
f 190/20/3 188/27/3 189/25/3
f 188/27/3 192/19/3 187/16/3
f 174/1/1 183/28/1 173/3/1
f 184/29/1 182/30/1 183/28/1
f 182/30/1 186/31/1 181/15/1
f 181/15/1 186/31/1 176/4/1
f 176/4/5 180/12/5 179/5/5
f 187/16/3 192/19/3 178/6/3
f 178/6/5 174/13/5 173/8/5
f 187/16/9 177/7/9 173/9/9
f 184/18/10 174/14/10 178/6/10
f 176/11/11 186/21/11 190/20/11
f 186/21/12 185/23/12 191/22/12
f 185/23/13 184/18/13 192/19/13
f 179/5/14 189/25/14 181/24/14
f 189/25/15 188/27/15 182/26/15
f 188/27/16 187/16/16 183/17/16
f 180/12/3 190/20/3 189/25/3
f 190/20/3 191/22/3 188/27/3
f 188/27/3 191/22/3 192/19/3
f 174/1/1 184/29/1 183/28/1
f 184/29/1 185/32/1 182/30/1
f 182/30/1 185/32/1 186/31/1
f 194/1/1 195/2/1 193/3/1
f 196/4/7 199/5/7 195/2/7
f 200/12/3 197/7/3 199/5/3
f 198/6/8 193/8/8 197/7/8
f 199/5/5 193/9/5 195/10/5
f 196/11/6 198/6/6 200/12/6
f 194/1/1 196/4/1 195/2/1
f 196/4/7 200/12/7 199/5/7
f 200/12/3 198/6/3 197/7/3
f 198/6/8 194/13/8 193/8/8
f 199/5/5 197/7/5 193/9/5
f 196/11/6 194/14/6 198/6/6
f 209/15/1 204/4/1 203/2/1
f 204/4/5 207/5/5 203/2/5
f 215/16/3 206/6/3 205/7/3
f 206/6/5 201/8/5 205/7/5
f 215/16/9 201/9/9 211/17/9
f 212/18/10 206/6/10 220/19/10
f 204/11/11 218/20/11 208/12/11
f 214/21/12 219/22/12 218/20/12
f 213/23/13 220/19/13 219/22/13
f 207/5/14 209/24/14 203/10/14
f 217/25/15 210/26/15 209/24/15
f 216/27/16 211/17/16 210/26/16
f 208/12/3 217/25/3 207/5/3
f 218/20/3 216/27/3 217/25/3
f 216/27/3 220/19/3 215/16/3
f 202/1/1 211/28/1 201/3/1
f 212/29/1 210/30/1 211/28/1
f 210/30/1 214/31/1 209/15/1
f 209/15/1 214/31/1 204/4/1
f 204/4/5 208/12/5 207/5/5
f 215/16/3 220/19/3 206/6/3
f 206/6/5 202/13/5 201/8/5
f 215/16/9 205/7/9 201/9/9
f 212/18/10 202/14/10 206/6/10
f 204/11/11 214/21/11 218/20/11
f 214/21/12 213/23/12 219/22/12
f 213/23/13 212/18/13 220/19/13
f 207/5/14 217/25/14 209/24/14
f 217/25/15 216/27/15 210/26/15
f 216/27/16 215/16/16 211/17/16
f 208/12/3 218/20/3 217/25/3
f 218/20/3 219/22/3 216/27/3
f 216/27/3 219/22/3 220/19/3
f 202/1/1 212/29/1 211/28/1
f 212/29/1 213/32/1 210/30/1
f 210/30/1 213/32/1 214/31/1
f 222/1/1 223/2/1 221/3/1
f 224/4/2 227/5/2 223/2/2
f 227/5/3 226/6/3 225/7/3
f 226/6/4 221/8/4 225/7/4
f 227/5/5 221/9/5 223/10/5
f 224/11/6 226/6/6 228/12/6
f 222/1/1 224/4/1 223/2/1
f 224/4/2 228/12/2 227/5/2
f 227/5/3 228/12/3 226/6/3
f 226/6/4 222/13/4 221/8/4
f 227/5/5 225/7/5 221/9/5
f 224/11/6 222/14/6 226/6/6
f 230/1/3 231/2/3 229/3/3
f 232/4/17 235/5/17 231/2/17
f 235/5/1 234/6/1 233/7/1
f 234/6/18 229/8/18 233/7/18
f 235/5/5 229/9/5 231/10/5
f 232/11/6 234/6/6 236/12/6
f 230/1/3 232/4/3 231/2/3
f 232/4/17 236/12/17 235/5/17
f 235/5/1 236/12/1 234/6/1
f 234/6/18 230/13/18 229/8/18
f 235/5/5 233/7/5 229/9/5
f 232/11/6 230/14/6 234/6/6
f 238/1/1 239/2/1 237/3/1
f 240/4/7 243/5/7 239/2/7
f 244/12/3 241/7/3 243/5/3
f 242/6/8 237/8/8 241/7/8
f 243/5/5 237/9/5 239/10/5
f 240/11/6 242/6/6 244/12/6
f 238/1/1 240/4/1 239/2/1
f 240/4/7 244/12/7 243/5/7
f 244/12/3 242/6/3 241/7/3
f 242/6/8 238/13/8 237/8/8
f 243/5/5 241/7/5 237/9/5
f 240/11/6 238/14/6 242/6/6
f 246/1/3 247/2/3 245/3/3
f 248/4/17 251/5/17 247/2/17
f 251/5/1 250/6/1 249/7/1
f 250/6/18 245/8/18 249/7/18
f 251/5/5 245/9/5 247/10/5
f 248/11/6 250/6/6 252/12/6
f 246/1/3 248/4/3 247/2/3
f 248/4/17 252/12/17 251/5/17
f 251/5/1 252/12/1 250/6/1
f 250/6/18 246/13/18 245/8/18
f 251/5/5 249/7/5 245/9/5
f 248/11/6 246/14/6 250/6/6
usemtl Material.007
f 10/1/1 11/2/1 9/3/1
f 12/4/7 15/5/7 11/2/7
f 16/12/3 13/7/3 15/5/3
f 14/6/8 9/8/8 13/7/8
f 15/5/5 9/9/5 11/10/5
f 12/11/6 14/6/6 16/12/6
f 10/1/1 12/4/1 11/2/1
f 12/4/7 16/12/7 15/5/7
f 16/12/3 14/6/3 13/7/3
f 14/6/8 10/13/8 9/8/8
f 15/5/5 13/7/5 9/9/5
f 12/11/6 10/14/6 14/6/6
usemtl Material.008
f 66/1/7 65/3/7 67/2/7
f 68/4/1 67/2/1 71/5/1
f 72/12/8 71/5/8 69/7/8
f 70/6/3 69/7/3 65/8/3
f 71/5/5 67/10/5 65/9/5
f 68/11/6 72/12/6 70/6/6
f 66/1/7 67/2/7 68/4/7
f 68/4/1 71/5/1 72/12/1
f 72/12/8 69/7/8 70/6/8
f 70/6/3 65/8/3 66/13/3
f 71/5/5 65/9/5 69/7/5
f 68/11/6 70/6/6 66/14/6
