# Blender 4.4.3
# www.blender.org
mtllib Underflooring.mtl
o Underflooring
v -55.860077 -6.816692 8.447182
v 54.338543 -6.816692 8.447182
v -67.880486 -6.816692 -23.509125
v -55.860077 -6.816692 19.874443
v -84.445587 -6.816692 -23.509125
v -67.880486 -6.816692 8.447182
v -67.880486 -6.816692 19.874443
v -84.445587 -6.816692 8.447182
v -67.880486 -6.816692 8.447182
v 54.338543 -6.816692 19.874443
v -67.880486 -6.816692 19.874443
v -84.445587 -6.816692 19.874443
v -67.880486 -6.816692 8.447182
v -84.445587 -6.816692 8.447182
v -42.370747 -6.816692 8.447182
v -42.370747 -6.816692 19.874443
v -28.833078 -6.816692 19.874443
v -28.833078 -6.816692 8.447182
v -14.518660 -6.816692 19.874443
v -14.518660 -6.816692 8.447182
v -0.986192 -6.816692 19.874443
v -0.986192 -6.816692 8.447182
v 13.638639 -6.816692 19.874443
v 13.638639 -6.816692 8.447182
v 33.796726 -6.816692 19.874443
v 33.796726 -6.816692 8.447182
v 33.796726 -6.816692 19.874443
v 33.796726 -6.816692 8.447182
v 52.543800 -0.399508 12.396488
v 52.543800 -7.231727 12.396488
v -66.085747 -0.399508 12.396488
v -66.085747 -7.231727 12.396488
v 54.338535 -7.013281 18.946346
v -67.880478 -7.013281 18.946346
v 23.783783 -7.013281 18.946346
v -6.770970 -7.013281 18.946346
v -37.325726 -7.013281 18.946346
v -67.880478 -7.013281 18.946346
v -84.409599 -7.013281 18.946346
v 23.783783 -0.191168 18.946346
v -6.770970 -0.191168 18.946346
v -37.325726 -0.191168 18.946346
v 54.338535 -0.191168 18.946346
v -67.880478 -0.191168 18.946346
v -67.880478 -0.191168 18.946346
v -84.409599 -0.191168 18.946346
vn -0.0000 1.0000 -0.0000
vn -0.0000 -0.0000 1.0000
vn -0.0000 -0.0000 -1.0000
vn -0.9644 -0.0000 0.2643
vt 0.963283 0.982846
vt 0.013695 0.010306
vt 0.945023 0.012018
vt 0.014465 0.010653
vt 0.946608 0.980348
vt 0.013870 0.985845
vt 0.949204 0.131847
vt 0.000000 0.875000
vt 0.000000 0.125000
vt 0.946607 0.985414
vt 0.026803 0.019722
vt 0.946607 0.018010
vt 0.023705 0.023954
vt 0.963180 0.987759
vt 0.028160 0.982984
vt 0.021516 0.014632
vt 0.945030 0.975382
vt 0.021422 0.982590
vt 0.016789 0.007932
vt 0.949689 0.983178
vt 0.014669 0.986962
vt 0.021450 0.015767
vt 0.967786 0.990173
vt 0.016789 0.992245
vt 0.014307 0.012942
vt 0.963347 0.984914
vt 0.014133 0.974481
vt 0.009962 0.034074
vt 0.951640 0.942716
vt 0.025749 0.941364
vt 0.625000 0.750000
vt 0.375000 1.000000
vt 0.375000 0.750000
vt 0.000000 0.125000
vt 0.952874 0.880000
vt 0.000000 0.875000
vt 0.026947 0.942641
vt 0.977666 0.062359
vt 0.977666 0.948549
vt 0.324392 0.988533
vt 0.966887 0.031467
vt 0.966887 0.988533
vt 0.000000 0.875000
vt 0.958663 0.135271
vt 0.958663 0.885271
vt 0.095964 0.068664
vt 0.913962 0.918672
vt 0.115365 0.935060
vt 0.625000 1.000000
vt 0.031955 0.981135
vt 0.951768 0.020564
vt 0.949204 0.881848
vt 0.026803 0.987126
vt 0.947313 0.020170
vt 0.949689 0.015983
vt 0.954092 0.005859
vt 0.947340 0.020542
vt 0.963522 0.023375
vt 0.935853 0.035425
vt 0.952874 0.130000
vt 0.026947 0.056451
vt 0.324392 0.031467
vt 0.894560 0.052276
s 0
usemtl StairsFloor
f 3/1/1 8/2/1 6/3/1
f 4/4/1 9/5/1 7/6/1
f 10/7/1 28/8/1 27/9/1
f 13/10/1 12/11/1 11/12/1
f 16/13/1 1/14/1 4/15/1
f 17/16/1 15/17/1 16/18/1
f 19/19/1 18/20/1 17/21/1
f 21/22/1 20/23/1 19/24/1
f 23/25/1 22/26/1 21/27/1
f 25/28/1 24/29/1 23/30/1
f 32/31/2 29/32/2 31/33/2
f 33/9/4 29/32/4 30/49/4
f 3/1/1 5/50/1 8/2/1
f 4/4/1 1/51/1 9/5/1
f 10/7/1 2/52/1 28/8/1
f 13/10/1 14/53/1 12/11/1
f 16/13/1 15/54/1 1/14/1
f 17/16/1 18/55/1 15/17/1
f 19/19/1 20/56/1 18/20/1
f 21/22/1 22/57/1 20/23/1
f 23/25/1 24/58/1 22/26/1
f 25/28/1 26/59/1 24/29/1
f 32/31/2 30/49/2 29/32/2
f 33/9/4 43/43/4 29/32/4
usemtl Cream_Wall
f 38/34/3 46/35/3 45/36/3
f 42/37/3 34/38/3 44/39/3
f 41/40/3 37/41/3 42/42/3
f 43/43/3 35/44/3 40/45/3
f 40/46/3 36/47/3 41/48/3
f 38/34/3 39/60/3 46/35/3
f 42/37/3 37/61/3 34/38/3
f 41/40/3 36/62/3 37/41/3
f 43/43/3 33/9/3 35/44/3
f 40/46/3 35/63/3 36/47/3
